HIERARCHY
ROOT Hips
{
	OFFSET -0.179506 -22.333345 2.821913
	CHANNELS 6 Xposition Yposition Zposition Zrotation Yrotation Xrotation 
	JOINT LeftUpLeg
	{
		OFFSET 6.951974 -9.140623 -0.681533
		CHANNELS 3 Zrotation Yrotation Xrotation
		JOINT LeftLeg
		{
			OFFSET 3.427654 -37.519855 -0.449580
			CHANNELS 3 Zrotation Yrotation Xrotation
			JOINT LeftFoot
			{
				OFFSET -1.359570 -39.796059 -4.369333
				CHANNELS 3 Zrotation Yrotation Xrotation
				JOINT LeftToe
				{
					OFFSET 2.635814 -5.579078 11.928840
					CHANNELS 3 Zrotation Yrotation Xrotation
					End Site
					{
						OFFSET 0.000000 0.000000 0.000000
					}
				}
			}
		}
	}
	JOINT RightUpLeg
	{
		OFFSET -6.767048 -9.052170 -0.431982
		CHANNELS 3 Zrotation Yrotation Xrotation
		JOINT RightLeg
		{
			OFFSET -3.829005 -38.256897 -0.885003
			CHANNELS 3 Zrotation Yrotation Xrotation
			JOINT RightFoot
			{
				OFFSET 1.577377 -39.841461 -4.231180
				CHANNELS 3 Zrotation Yrotation Xrotation
				JOINT RightToe
				{
					OFFSET -2.537174 -4.814398 12.334795
					CHANNELS 3 Zrotation Yrotation Xrotation
					End Site
					{
						OFFSET 0.000000 0.000000 0.000000
					}
				}
			}
		}
	}
	JOINT Spine
	{
		OFFSET -0.253288 10.896323 -2.669631
		CHANNELS 3 Zrotation Yrotation Xrotation
		JOINT Spine1
		{
			OFFSET 0.548704 13.518043 0.109247
			CHANNELS 3 Zrotation Yrotation Xrotation
			JOINT Spine2
			{
				OFFSET 0.145701 5.292222 2.542457
				CHANNELS 3 Zrotation Yrotation Xrotation
				JOINT Neck
				{
					OFFSET -0.277840 21.387037 -4.285703
					CHANNELS 3 Zrotation Yrotation Xrotation
					JOINT Head
					{
						OFFSET 0.515184 6.496960 5.134897
						CHANNELS 3 Zrotation Yrotation Xrotation
						End Site
						{
							OFFSET 0.000000 0.000000 0.000000
						}
					}
				}
				JOINT LeftShoulder
				{
					OFFSET 7.884473 12.174932 -3.408961
					CHANNELS 3 Zrotation Yrotation Xrotation
					JOINT LeftArm
					{
						OFFSET 9.097692 3.046888 -0.886815
						CHANNELS 3 Zrotation Yrotation Xrotation
						JOINT LeftForeArm
						{
							OFFSET 25.961220 -1.277207 -2.745643
							CHANNELS 3 Zrotation Yrotation Xrotation
							JOINT LeftHand
							{
								OFFSET 24.923361 0.898606 -0.117091
								CHANNELS 3 Zrotation Yrotation Xrotation
								End Site
								{
									OFFSET 0.000000 0.000000 0.000000
								}
							}
						}
					}
				}
				JOINT RightShoulder
				{
					OFFSET -8.175920 11.883285 -3.861528
					CHANNELS 3 Zrotation Yrotation Xrotation
					JOINT RightArm
					{
						OFFSET -9.601238 3.255117 -0.914307
						CHANNELS 3 Zrotation Yrotation Xrotation
						JOINT RightForeArm
						{
							OFFSET -25.374195 -1.332924 -2.140099
							CHANNELS 3 Zrotation Yrotation Xrotation
							JOINT RightHand
							{
								OFFSET -25.529810 0.777228 -0.555919
								CHANNELS 3 Zrotation Yrotation Xrotation
								End Site
								{
									OFFSET 0.000000 0.000000 0.000000
								}
							}
						}
					}
				}
			}
		}
	}
}
MOTION
Frames: 14
Frame Time: 0.033333
-0.179506 146.324753 2.821913 34.006888 -29.594889 165.329205 16.872512 12.392355 -27.370147 -12.162395 11.513482 99.831877 -1.241296 14.106343 -2.576581 -0.948661 0.914061 -0.170622 -11.559468 -11.531200 -16.274935 7.400183 -0.875447 74.727686 -0.713377 -15.161319 7.940325 -0.284023 0.013521 -0.928914 -2.366555 1.780899 7.797114 1.975883 -6.720778 -1.141720 0.628978 2.318288 -8.049385 -8.333491 -3.414264 2.365678 8.759267 6.641073 -31.346189 26.761709 -24.069857 -19.274552 23.810697 -13.979972 -26.184371 23.705078 -38.408319 -34.765893 56.700121 -16.234616 0.324604 -31.547300 25.481128 -15.331010 -14.313763 12.887786 -33.952893 -29.977697 34.706001 -35.597174 -50.595100 12.257994 -3.389316 
1.997327 146.039627 3.863024 32.629753 -43.375227 170.197736 19.239194 14.154681 -33.194490 -10.967237 13.216217 109.543999 -0.618594 13.669076 -2.828434 -0.540659 0.919700 -0.370089 -9.647437 -10.038770 -16.552718 8.323641 -2.179066 83.877481 -1.907923 -15.281042 10.049278 -0.789006 0.252589 -0.687410 -3.976670 1.846870 9.925811 3.238702 -7.726793 -0.494200 0.215039 1.863907 -9.597156 -6.675194 -3.539295 -1.087100 7.843823 5.791610 -28.069806 25.403635 -24.976539 -20.113259 24.597004 -13.291168 -24.236201 24.459808 -38.051945 -36.114744 52.176191 -17.042234 2.049977 -27.932370 25.896424 -15.951044 -19.101242 12.780902 -34.047959 -31.014305 33.866358 -37.601291 -46.423847 14.117010 -0.801230 
3.086598 145.035660 4.921049 39.640312 -47.500503 159.485699 15.600395 10.327566 -28.788114 -12.269832 9.374441 101.663280 -0.249681 14.317456 -2.307969 -0.713383 0.666418 -0.084984 -9.851562 -9.744029 -21.931838 9.035621 -1.385065 87.556882 -1.677486 -13.919836 8.391681 0.106330 0.263217 -1.405351 -1.706040 1.554823 10.382624 3.399466 -6.648972 -1.034705 -0.080875 2.557703 -7.905923 -11.358121 -2.173960 2.526916 6.158833 6.591567 -29.975777 28.115249 -28.104440 -20.605386 23.041026 -12.790185 -24.636118 19.357014 -40.194912 -29.350791 50.616097 -15.896764 3.378314 -30.646379 27.439857 -14.897038 -13.993170 11.514667 -34.140086 -35.715017 39.459539 -39.962353 -49.409357 14.196660 -0.343388 
4.743458 144.789642 6.299315 27.897385 -52.592509 165.075117 16.840812 11.519762 -34.780331 -9.336634 8.503028 103.390991 0.770456 15.584048 -1.174915 -0.494219 0.592466 -0.055295 -7.761712 -9.273885 -31.952180 6.082404 -2.488723 83.667508 -2.563256 -14.867458 7.092519 0.446487 0.458740 -0.780845 -2.518765 0.891827 14.226669 3.689857 -6.674917 -1.590388 0.551851 1.771406 -8.580019 -11.815096 -3.731188 4.220303 8.724454 8.295022 -29.699773 26.706030 -29.037694 -20.632158 23.721441 -11.760861 -23.207420 16.877668 -40.221298 -28.848101 51.629111 -16.463543 5.905290 -32.662058 28.702428 -16.119240 -14.854676 13.022758 -34.536890 -34.424729 41.216406 -41.479230 -53.675676 10.699233 -1.431302 
5.619602 144.014130 7.534585 20.670738 -61.214728 166.411778 13.623611 9.814533 -38.416881 -8.659179 8.055955 102.269944 2.227797 15.090297 -0.322518 -0.485997 0.265069 -0.064174 -6.002714 -8.019584 -38.941772 3.775341 -3.497843 80.673017 -2.891057 -14.739447 8.078616 0.880344 0.708054 -0.722792 -1.247893 0.567367 18.564659 3.834445 -6.461107 -1.849579 0.229483 2.116213 -9.268525 -13.620503 -4.453475 6.547707 8.794770 8.956822 -28.254827 26.793387 -32.758321 -21.587832 24.834006 -13.249863 -24.159724 14.554294 -38.050881 -27.007626 49.206736 -16.682497 7.277772 -32.527495 31.268571 -15.638710 -14.694477 12.618475 -35.014463 -34.327560 43.275059 -41.141820 -54.142360 11.094672 0.007898 
5.511156 142.718506 8.845403 20.544681 -70.753957 156.662676 12.101313 7.904567 -43.790912 -10.285909 7.958852 95.491717 3.219818 14.497663 -0.293574 -0.265463 -0.095533 -0.211944 -6.530514 -6.741252 -48.629416 5.698706 -3.479468 75.234984 -2.510601 -13.523471 7.624992 1.663935 0.743899 -1.034979 1.063308 -0.835784 24.863903 4.059374 -5.858636 -2.550155 -0.342358 2.350166 -8.613426 -17.411146 -5.078633 11.069181 8.776782 10.496435 -26.646461 25.984109 -36.033652 -22.383228 25.824460 -12.958857 -25.150194 14.539790 -38.594206 -27.186016 47.671637 -15.962814 6.949595 -32.487149 34.251661 -14.732613 -14.200680 9.171861 -34.439292 -37.242216 46.083424 -44.927712 -53.287472 10.283777 -2.632091 
3.831620 140.764633 9.803838 30.345654 -74.939713 140.233683 9.981654 6.753082 -45.065241 -10.572089 7.008673 87.368177 1.772140 12.241146 1.786218 -0.339762 -0.413252 -0.206681 -7.271599 -5.856455 -54.125215 3.886325 -5.063907 71.619513 -1.864763 -12.273042 5.799108 2.565034 0.891428 -0.889473 2.825299 -3.022235 28.948823 3.432227 -4.678500 -3.019648 -0.789080 2.480630 -8.158452 -19.246971 -5.650771 14.516207 10.265171 10.920274 -22.700870 24.789903 -37.058968 -22.904261 25.406798 -13.723523 -26.180220 16.722177 -39.316410 -30.170979 44.423396 -14.561872 7.978476 -32.317394 36.987691 -14.328626 -12.686075 9.769268 -34.279491 -41.580272 45.953929 -50.773234 -50.936652 9.759075 -4.765127 
0.655689 139.327606 10.560452 56.386596 -77.398742 107.109279 9.911114 5.768982 -48.687972 -10.720600 6.286582 78.559457 2.415440 11.929613 1.835476 -0.379876 -0.266231 -0.602839 -9.883891 -6.305187 -57.544885 3.144779 -4.419022 70.931449 -2.633451 -14.201114 3.346309 2.962905 0.610094 -0.990889 4.425343 -3.713281 31.502959 2.845391 -3.822166 -3.074761 -0.866350 2.713577 -7.171729 -20.087698 -7.152435 14.290585 10.998850 9.525270 -23.207160 22.622059 -37.382452 -21.985355 23.490029 -13.313378 -25.800611 19.903392 -42.315948 -30.251914 43.307836 -12.221529 6.870996 -31.968950 37.955708 -13.162736 -11.890412 9.571804 -33.634170 -39.464072 47.671416 -48.273271 -50.986239 9.021966 -3.803195 
-2.956739 138.785217 10.413889 77.940382 -74.237256 77.618572 10.907015 7.457452 -55.542177 -11.434021 7.854325 72.207918 2.295513 9.548584 0.140758 -0.170674 -0.027421 -0.972331 -12.789709 -8.247322 -59.689192 2.820673 -3.354840 73.081937 -2.639441 -15.610505 -2.245850 2.696463 0.066104 -0.988006 4.635768 -3.855127 33.858988 2.640785 -4.763841 -2.639238 -0.675014 2.284244 -6.379853 -18.695519 -6.810774 15.178058 11.722311 9.516778 -22.724883 19.146778 -37.753630 -20.411158 26.473512 -10.249122 -25.855322 26.956008 -44.758327 -37.279682 44.193722 -11.586004 4.087414 -29.595214 38.264561 -11.462245 -13.675076 11.028467 -35.504642 -41.403255 46.869157 -53.274730 -51.018402 6.149491 -7.844055 
-5.351565 137.749603 9.375185 95.992714 -29.833990 33.527138 15.885609 9.697966 -65.426679 -8.784761 12.939402 84.971919 7.635246 11.828139 -1.764022 0.880433 0.564094 -0.753794 -13.759729 -7.796600 -57.822675 7.652982 -1.259937 82.346170 -5.870910 -19.488510 -3.235340 1.815724 0.247792 -1.078793 3.684053 -2.333253 31.915717 2.263290 -4.888868 -1.302411 -0.181426 1.916612 -2.528009 -16.487028 -7.844667 13.344784 10.645769 4.805058 -27.791010 18.404370 -36.332547 -19.449254 22.997837 -10.148553 -23.510958 31.863453 -53.529967 -40.060369 45.122205 -12.126984 -2.967519 -30.038473 34.103402 -11.668204 -7.209813 11.179693 -32.400711 -38.316649 51.366381 -46.490011 -51.841029 7.770136 -6.039514 
-5.776865 135.599121 6.483855 110.699432 10.399633 29.994376 13.671142 9.302680 -64.946785 -12.494620 11.158917 69.328627 7.552430 9.946949 -0.062749 0.768732 0.573817 -1.425398 -17.898256 -7.907039 -59.341441 5.822580 -0.717010 106.312264 -12.920477 -18.032888 2.682986 3.030392 -0.196197 -1.615311 6.270488 -3.354769 34.069898 3.391016 -3.487563 0.707364 0.007881 2.434008 -4.780467 -17.986336 -8.035182 13.536369 8.555167 3.073258 -23.651207 13.742277 -35.492477 -16.422292 16.973650 -13.170199 -22.590035 34.356454 -60.051098 -38.816692 44.804294 -8.872785 -5.831131 -26.197524 33.889217 -6.624104 -3.028310 12.390664 -30.535709 -53.190762 57.925898 -63.305569 -47.218427 4.087093 -11.288659 
-5.131857 131.188553 3.690747 125.526894 33.919907 36.606431 15.371584 10.412648 -69.190997 -13.673116 10.188270 64.733919 7.396273 5.398572 0.357062 1.235739 -0.233251 -1.051752 -20.724292 -5.545989 -55.702380 6.687649 0.930902 118.175770 -15.233329 -15.140314 4.804602 3.039774 0.492024 -1.881320 4.997811 -4.906625 37.361099 2.399537 -3.399945 4.335556 0.196261 1.883629 -5.724916 -18.645042 -6.898181 16.424032 6.384668 -1.824130 -22.262853 4.410947 -34.791220 -11.114627 17.338916 -14.668448 -20.044911 50.116672 -66.788745 -57.782150 35.559843 -6.335956 -16.490140 -21.443961 33.718690 -4.264967 0.765526 21.756893 -29.272290 -57.159385 60.580645 -67.110541 -40.505800 1.703736 -18.716600 
-3.103970 125.415359 2.308527 135.471321 41.892876 42.770504 16.148847 9.487714 -71.867782 -13.759895 14.072029 66.165237 7.690611 5.043075 -0.238950 1.086061 -0.551525 -0.672991 -21.550000 -4.137323 -44.359570 8.256815 -0.479732 122.155632 -16.126515 -14.258033 3.064538 2.541894 0.474109 -2.148556 4.011040 -2.156906 35.703388 1.540979 -3.839103 7.232949 -0.307758 2.095306 -6.144977 -17.835519 -3.494493 21.821153 6.291310 -2.735166 -18.798688 3.434060 -33.839443 -9.082465 14.775034 -14.671363 -20.015501 58.300572 -66.576898 -67.248989 33.530580 -10.697345 -16.042456 -18.037817 34.384972 -1.669809 8.944994 22.224341 -23.305780 -57.103336 63.465287 -60.864264 -36.444564 6.905184 -16.875887 
-1.101176 122.134552 0.954183 143.637492 45.222884 48.258017 16.423854 8.967907 -73.586243 -12.138355 19.750076 72.403265 7.078725 5.818709 1.842029 0.818614 -0.189392 -0.420881 -21.342432 -3.705938 -35.307587 9.144604 -2.572117 124.382398 -17.045386 -13.000088 1.815548 3.183867 0.184250 -2.106158 2.699856 0.953970 34.681420 1.021546 -4.309646 8.045751 -1.001633 2.648194 -7.111671 -15.030464 -0.173392 24.832350 7.344360 -1.290945 -15.868981 5.925748 -30.816802 -9.369870 12.294054 -12.235176 -16.476342 62.252533 -68.874964 -68.474018 31.623753 -14.674155 -11.158253 -18.110895 32.875869 -0.763744 14.635884 16.306933 -17.597823 -59.546416 69.617029 -61.001695 -33.942050 6.630269 -16.333083 
